<svg width="31" height="30" viewBox="0 0 31 30" fill="none" xmlns="http://www.w3.org/2000/svg">
<path d="M15.2393 24.375C21.9717 24.375 27.4268 18.9199 27.4268 12.1875C27.4268 5.45508 21.9717 0 15.2393 0C8.50684 0 3.05176 5.45508 3.05176 12.1875C3.05176 18.9199 8.50684 24.375 15.2393 24.375ZM13.9385 5.70703V4.72266C13.9385 4.18359 14.3721 3.75 14.9111 3.75H15.5615C16.1006 3.75 16.5342 4.18359 16.5342 4.72266V5.71875C17.4424 5.76562 18.3213 6.07617 19.0537 6.62109C19.3818 6.86133 19.417 7.3418 19.124 7.62305L18.1689 8.53125C17.9463 8.74805 17.6123 8.75391 17.3486 8.58984C17.0322 8.39062 16.6807 8.29102 16.3057 8.29102H14.0264C13.499 8.29102 13.0713 8.77148 13.0713 9.36328C13.0713 9.84375 13.3643 10.2715 13.7803 10.3945L17.4307 11.4902C18.9365 11.9414 19.9912 13.3887 19.9912 15.0117C19.9912 17.0039 18.4443 18.6152 16.5283 18.668V19.6523C16.5283 20.1914 16.0947 20.625 15.5557 20.625H14.9053C14.3662 20.625 13.9326 20.1914 13.9326 19.6523V18.6562C13.0244 18.6094 12.1455 18.2988 11.4131 17.7539C11.085 17.5137 11.0498 17.0332 11.3428 16.752L12.2979 15.8438C12.5205 15.627 12.8545 15.6211 13.1182 15.7852C13.4346 15.9844 13.7861 16.084 14.1611 16.084H16.4404C16.9678 16.084 17.3955 15.6035 17.3955 15.0117C17.3955 14.5313 17.1025 14.1035 16.6865 13.9805L13.0361 12.8848C11.5303 12.4336 10.4756 10.9863 10.4756 9.36328C10.4814 7.37109 12.0225 5.75977 13.9385 5.70703ZM28.3643 20.625H26.46C25.3115 22.1484 23.8467 23.4199 22.1826 24.375H25.9209C26.2314 24.375 26.4834 24.5859 26.4834 24.8438V25.7812C26.4834 26.0391 26.2314 26.25 25.9209 26.25H4.55176C4.24121 26.25 3.98926 26.0391 3.98926 25.7812V24.8438C3.98926 24.5859 4.24121 24.375 4.55176 24.375H8.29004C6.62598 23.4199 5.16699 22.1484 4.0127 20.625H2.11426C1.07715 20.625 0.239258 21.4629 0.239258 22.5V28.125C0.239258 29.1621 1.07715 30 2.11426 30H28.3643C29.4014 30 30.2393 29.1621 30.2393 28.125V22.5C30.2393 21.4629 29.4014 20.625 28.3643 20.625Z" fill="#00B3FF"/>
</svg>
