<svg width="20" height="22" viewBox="0 0 20 22" fill="none" xmlns="http://www.w3.org/2000/svg">
<path d="M19.7232 11.6936L13.0562 20.7156C12.4609 21.5211 11.4291 20.9572 11.4291 19.8026V14.6472H6.03205C5.50424 14.6472 5.07962 14.0726 5.07962 13.3584V8.20298C5.07962 7.48875 5.50424 6.91413 6.03205 6.91413H11.4291V1.75874C11.4291 0.609517 12.457 0.040276 13.0562 0.845806L19.7232 9.86775C20.0923 10.3725 20.0923 11.1888 19.7232 11.6936ZM7.61943 20.447V18.299C7.61943 17.9445 7.40513 17.6545 7.14321 17.6545H3.80971C3.1073 17.6545 2.53981 16.8866 2.53981 15.9361V5.62529C2.53981 4.67476 3.1073 3.90682 3.80971 3.90682H7.14321C7.40513 3.90682 7.61943 3.61683 7.61943 3.2624V1.11432C7.61943 0.759883 7.40513 0.469892 7.14321 0.469892H3.80971C1.70643 0.469892 0 2.77908 0 5.62529V15.9361C0 18.7823 1.70643 21.0915 3.80971 21.0915H7.14321C7.40513 21.0915 7.61943 20.8015 7.61943 20.447Z" fill="#9A9A9A"/>
</svg>
