<svg width="15" height="18" viewBox="0 0 15 18" fill="none" xmlns="http://www.w3.org/2000/svg">
<path d="M11.7857 11.25C11.0287 11.25 10.333 11.5249 9.78382 11.9846L6.35237 9.73269C6.45398 9.25005 6.45398 8.74992 6.35237 8.26727L9.78382 6.01538C10.333 6.47511 11.0287 6.75 11.7857 6.75C13.5609 6.75 15 5.23895 15 3.375C15 1.51105 13.5609 0 11.7857 0C10.0105 0 8.57143 1.51105 8.57143 3.375C8.57143 3.62665 8.59788 3.87176 8.64763 4.10769L5.21618 6.35959C4.66698 5.89989 3.97125 5.625 3.21429 5.625C1.4391 5.625 0 7.13605 0 9C0 10.8639 1.4391 12.375 3.21429 12.375C3.97125 12.375 4.66698 12.1001 5.21618 11.6404L8.64763 13.8923C8.59691 14.1329 8.57136 14.3786 8.57143 14.625C8.57143 16.4889 10.0105 18 11.7857 18C13.5609 18 15 16.4889 15 14.625C15 12.7611 13.5609 11.25 11.7857 11.25Z" fill="#9A9A9A"/>
</svg>
