<svg width="21" height="20" viewBox="0 0 21 20" fill="none" xmlns="http://www.w3.org/2000/svg">
<path d="M13.832 6.12903C13.2472 2.52823 11.8679 0 10.2628 0C8.6576 0 7.27829 2.52823 6.69349 6.12903H13.832ZM6.39101 10C6.39101 10.8952 6.43941 11.754 6.5241 12.5806H13.9974C14.0821 11.754 14.1305 10.8952 14.1305 10C14.1305 9.10484 14.0821 8.24597 13.9974 7.41935H6.5241C6.43941 8.24597 6.39101 9.10484 6.39101 10ZM19.4864 6.12903C18.3329 3.39113 15.9978 1.27419 13.1141 0.419355C14.0982 1.78226 14.7758 3.83468 15.1307 6.12903H19.4864ZM7.40734 0.419355C4.52773 1.27419 2.18855 3.39113 1.03912 6.12903H5.39484C5.74572 3.83468 6.42327 1.78226 7.40734 0.419355ZM19.9179 7.41935H15.292C15.3767 8.26613 15.4251 9.13306 15.4251 10C15.4251 10.8669 15.3767 11.7339 15.292 12.5806H19.9139C20.1357 11.754 20.2607 10.8952 20.2607 10C20.2607 9.10484 20.1357 8.24597 19.9179 7.41935ZM5.10043 10C5.10043 9.13306 5.14882 8.26613 5.23352 7.41935H0.607586C0.3898 8.24597 0.260742 9.10484 0.260742 10C0.260742 10.8952 0.3898 11.754 0.607586 12.5806H5.22949C5.14882 11.7339 5.10043 10.8669 5.10043 10ZM6.69349 13.871C7.27829 17.4718 8.6576 20 10.2628 20C11.8679 20 13.2472 17.4718 13.832 13.871H6.69349ZM13.1182 19.5806C15.9978 18.7258 18.337 16.6089 19.4904 13.871H15.1347C14.7798 16.1653 14.1022 18.2177 13.1182 19.5806ZM1.03912 13.871C2.19258 16.6089 4.52773 18.7258 7.41138 19.5806C6.42731 18.2177 5.74975 16.1653 5.39484 13.871H1.03912Z" fill="#00F0FF"/>
</svg>
