<svg width="21" height="22" viewBox="0 0 21 22" fill="none" xmlns="http://www.w3.org/2000/svg">
<path d="M18.5923 4.7373H3.70166C3.35635 4.7373 3.07666 4.3877 3.07666 3.95605C3.07666 3.52441 3.35635 3.1748 3.70166 3.1748H18.7017C19.047 3.1748 19.3267 2.8252 19.3267 2.39355C19.3267 1.09912 18.4872 0.0498047 17.4517 0.0498047H3.07666C1.6958 0.0498047 0.57666 1.44873 0.57666 3.1748V18.7998C0.57666 20.5259 1.6958 21.9248 3.07666 21.9248H18.5923C19.6868 21.9248 20.5767 20.8735 20.5767 19.5811V7.08105C20.5767 5.78857 19.6868 4.7373 18.5923 4.7373ZM16.8267 14.8936C16.1364 14.8936 15.5767 14.1938 15.5767 13.3311C15.5767 12.4683 16.1364 11.7686 16.8267 11.7686C17.5169 11.7686 18.0767 12.4683 18.0767 13.3311C18.0767 14.1938 17.5169 14.8936 16.8267 14.8936Z" fill="#00F0FF"/>
</svg>
