<svg width="34" height="19" viewBox="0 0 34 19" fill="none" xmlns="http://www.w3.org/2000/svg">
<path id="Vector" d="M1.84944 3.4898H32.8089C33.4666 3.4898 33.9997 3.14261 33.9997 2.71429V0.77551C33.9997 0.347186 33.4666 0 32.8089 0H1.84944C1.19177 0 0.658691 0.347186 0.658691 0.77551V2.71429C0.658691 3.14261 1.19177 3.4898 1.84944 3.4898ZM1.84944 11.2449H32.8089C33.4666 11.2449 33.9997 10.8977 33.9997 10.4694V8.53061C33.9997 8.10229 33.4666 7.7551 32.8089 7.7551H1.84944C1.19177 7.7551 0.658691 8.10229 0.658691 8.53061V10.4694C0.658691 10.8977 1.19177 11.2449 1.84944 11.2449ZM1.84944 19H32.8089C33.4666 19 33.9997 18.6528 33.9997 18.2245V16.2857C33.9997 15.8574 33.4666 15.5102 32.8089 15.5102H1.84944C1.19177 15.5102 0.658691 15.8574 0.658691 16.2857V18.2245C0.658691 18.6528 1.19177 19 1.84944 19Z" fill="white"/>
</svg>
