<svg width="30" height="30" viewBox="0 0 30 30" fill="none" xmlns="http://www.w3.org/2000/svg">
<path d="M29.5848 16.3271L19.5843 29.4499C18.6914 30.6216 17.1437 29.8014 17.1437 28.122V20.6232H9.04807C8.25636 20.6232 7.61943 19.7874 7.61943 18.7485V11.2498C7.61943 10.2109 8.25636 9.3751 9.04807 9.3751H17.1437V1.87635C17.1437 0.204753 18.6854 -0.623235 19.5843 0.548446L29.5848 13.6713C30.1384 14.4055 30.1384 15.5928 29.5848 16.3271ZM11.4291 29.0593V25.9349C11.4291 25.4193 11.1077 24.9975 10.7148 24.9975H5.71457C4.66095 24.9975 3.80971 23.8805 3.80971 22.4979V7.50042C3.80971 6.11783 4.66095 5.00083 5.71457 5.00083H10.7148C11.1077 5.00083 11.4291 4.57903 11.4291 4.06349V0.939006C11.4291 0.423466 11.1077 0.00166133 10.7148 0.00166133H5.71457C2.55965 0.00166133 0 3.36048 0 7.50042V22.4979C0 26.6379 2.55965 29.9967 5.71457 29.9967H10.7148C11.1077 29.9967 11.4291 29.5749 11.4291 29.0593Z" fill="#989898"/>
</svg>
