<svg width="70" height="70" viewBox="0 0 70 70" fill="none" xmlns="http://www.w3.org/2000/svg">
<circle cx="35" cy="35" r="35" fill="#FF0000"/>
<path d="M26.5285 55H25.0248C23.779 55 22.7691 54.1605 22.7691 53.125L22.7691 25H18.2579C16.2497 25 15.2464 22.9766 16.6629 21.7991L24.1816 15.5491C25.0625 14.817 26.4907 14.817 27.3715 15.5491L34.8903 21.7991C36.3012 22.9722 35.3119 25 33.2954 25H28.7841L28.7841 53.125C28.7841 54.1605 27.7743 55 26.5285 55ZM40.8141 16.875V45H36.3029C34.2997 45 33.2879 47.0205 34.7079 48.2009L42.2266 54.4509C43.1075 55.183 44.5357 55.183 45.4166 54.4509L52.9353 48.2009C54.3476 47.0268 53.3551 45 51.3404 45H46.8291V16.875C46.8291 15.8395 45.8193 15 44.5735 15H43.0698C41.824 15 40.8141 15.8395 40.8141 16.875Z" fill="#FFF5F5"/>
</svg>
