<svg width="20" height="20" viewBox="0 0 20 20" fill="none" xmlns="http://www.w3.org/2000/svg">
<path d="M9.6875 0.3125C4.33762 0.3125 0 4.65168 0 10C0 15.3514 4.33762 19.6875 9.6875 19.6875C15.0374 19.6875 19.375 15.3514 19.375 10C19.375 4.65168 15.0374 0.3125 9.6875 0.3125ZM9.6875 4.60938C10.5936 4.60938 11.3281 5.34391 11.3281 6.25C11.3281 7.15609 10.5936 7.89062 9.6875 7.89062C8.78141 7.89062 8.04688 7.15609 8.04688 6.25C8.04688 5.34391 8.78141 4.60938 9.6875 4.60938ZM11.875 14.5312C11.875 14.7901 11.6651 15 11.4062 15H7.96875C7.70988 15 7.5 14.7901 7.5 14.5312V13.5938C7.5 13.3349 7.70988 13.125 7.96875 13.125H8.4375V10.625H7.96875C7.70988 10.625 7.5 10.4151 7.5 10.1562V9.21875C7.5 8.95988 7.70988 8.75 7.96875 8.75H10.4688C10.7276 8.75 10.9375 8.95988 10.9375 9.21875V13.125H11.4062C11.6651 13.125 11.875 13.3349 11.875 13.5938V14.5312Z" fill="#787878"/>
</svg>
